/* XPM */
static char * bibletime_xpm[] = {
"32 32 24 1",
" 	c None",
".	c #C3C3C3",
"+	c #303030",
"@	c #A0A0A0",
"#	c #C05800",
"$	c #000000",
"%	c #FFA858",
"&	c #404000",
"*	c #FFDCA8",
"=	c #FFC0C0",
"-	c #DCDCDC",
";	c #585858",
">	c #808080",
",	c #800000",
"'	c #400000",
")	c #FF8000",
"!	c #800080",
"~	c #C0C000",
"{	c #C000C0",
"]	c #C00000",
"^	c #FFFFC0",
"/	c #FF0000",
"(	c #C0FFC0",
"_	c #808000",
"                                ",
"               ; ;              ",
"      +$$+++$+++&+++++$$        ",
"     '&,'@@@.%.%..===.*+;       ",
"     +!&+@%%.@#@%~...=-&$       ",
"     +,!&@%%@###@@..%*.&&       ",
"     &!,+@@@%@{#@.%..=*&+       ",
"     ,;&,@%)>##{###)@.=;$       ",
"    ;+,!+@%##{##]{##)=.;$       ",
"     &,!&@%)@###%%@=.=-&+       ",
"    ;&,,+.@%@%##.%.%..*+&       ",
"     ,&&,@..%%##.%.=.*-+&       ",
"     +,,&@%..%>#=...=.=+&       ",
"     +,!&@=...@#@...*-.++       ",
"     &!,+~....)#).*.-*-+$       ",
"     &!,+@..=.##)*..**-&$       ",
"     +,,&@=.*.##@.=*..*&$       ",
"     +,,&@==..%%..*.**.++       ",
"     &,!+@..*...*=..-*-+$       ",
"     ,&+&_.*..*...**-=.++       ",
"     &!!&>%..@>&++'++$+$$       ",
"     $'$$++'$++;>)>@)=..@       ",
"     $$+&#>)>@%%@@%..*--        ",
"     $;>#)@@%%..==..--**        ",
"     $##;>@@@%@.~...*-**        ",
"     +$;;#>>%%@~....**-^        ",
"     @+'$&#>@)>@~.~..--^        ",
"         >++$$$+$'++&>.-.       ",
"               @>;&'+$+$;       ",
"                                ",
"                                ",
"                                "};
