/* XPM */
static char *bibletime[]={
"32 32 386 2",
"Qt c None",
"da c #035a4c",
"dy c #096e5c",
"dn c #0b6959",
"bL c #0d8372",
"b1 c #138572",
"bu c #178574",
"cf c #218170",
"cY c #2a8474",
"#. c #2d5850",
"cy c #2d8073",
"dz c #308878",
"aw c #30887b",
"dZ c #425b50",
"db c #469484",
"cj c #4e4e4d",
"cP c #505050",
"#p c #579d8f",
"do c #5b9b8e",
"aR c #5ba598",
"ab c #5ba599",
"d0 c #5f675d",
"dS c #606058",
"#n c #60a499",
"#q c #66887d",
"cC c #686868",
"d9 c #6a6961",
"d7 c #6a6a62",
"dR c #6a6f66",
"dT c #6b6a60",
"du c #6b6b60",
"d6 c #6b6b63",
"di c #6b6c61",
"#o c #6bb4a9",
"dK c #6c6c41",
"bj c #6c6c63",
"d3 c #6d6c64",
"c6 c #6d6d62",
"dX c #6d6d64",
"dL c #6e6d62",
"dY c #6e6d64",
"d2 c #6e6d65",
"dW c #6e6e65",
"dO c #6f6e66",
"dN c #6f6f66",
"dF c #706f66",
"cT c #707065",
"dx c #707066",
"bk c #707167",
"dw c #717066",
"dm c #717166",
"dl c #717167",
"dv c #727167",
"dk c #727267",
"d# c #727268",
"## c #727d75",
"dV c #737168",
"bl c #737268",
"dE c #737368",
"#B c #73a79e",
"cX c #747368",
"d. c #747369",
"d1 c #747468",
"cH c #747469",
"dU c #757467",
"cW c #757469",
"cL c #75746a",
"dM c #757569",
"cK c #75756a",
"c9 c #76756a",
"cx c #76766a",
"dJ c #76773a",
"#T c #76aea4",
"cw c #77766a",
"c8 c #77766b",
"dj c #77776a",
"dQ c #778575",
"ce c #78766b",
"cd c #78776b",
"c7 c #78786b",
"cq c #78786d",
"c# c #78786e",
"cU c #787a6d",
"d5 c #79786b",
"b0 c #79786c",
"cv c #79796c",
"cV c #797a6d",
"bZ c #7a796d",
"bm c #7a796e",
"bK c #7a7a6d",
"cI c #7a7c6f",
"bJ c #7b7a6d",
"cc c #7b7a6e",
"cu c #7b7b6f",
"cJ c #7b7c6f",
"bt c #7c7b6d",
"bs c #7c7b6e",
"bY c #7c7b6f",
".q c #7c7b70",
"b# c #7c7c6f",
"bI c #7c7c70",
"br c #7d7c6f",
"b. c #7d7c70",
"bX c #7d7c71",
"bV c #7d7c72",
"dD c #7d7d2e",
"ct c #7d7d71",
"aQ c #7e7d70",
".D c #7e7d71",
"cs c #7e7e71",
"aP c #7f7e71",
"bq c #7f7e72",
"bE c #7f7e74",
"a5 c #7f7f73",
"d4 c #7f7f74",
"an c #7f7f75",
"dI c #7f8767",
"av c #807f71",
"a9 c #807f72",
"bH c #807f73",
"aa c #808071",
"aO c #808072",
"cr c #808073",
".p c #808074",
"dP c #809781",
"au c #818072",
"bp c #818073",
"a8 c #818173",
"cb c #818174",
"dH c #819485",
"#S c #828173",
".T c #828174",
"dt c #82822a",
".C c #828275",
"dG c #82988a",
"#m c #838274",
"bo c #838275",
"bn c #838276",
".9 c #838374",
"ca c #838476",
"a# c #848375",
"aN c #848376",
"bG c #848377",
"#A c #848475",
".S c #848476",
"bW c #848477",
"bF c #848579",
"cM c #84ada6",
"#l c #858476",
"aM c #858478",
"d8 c #85847a",
"a4 c #858546",
".8 c #858576",
"#R c #858577",
"a7 c #858578",
"at c #868578",
".o c #868579",
"#z c #868678",
"a6 c #868679",
".B c #878679",
"#k c #878779",
".R c #888779",
"a. c #88877a",
"#y c #88887a",
"dB c #888e5f",
"#Q c #89897b",
"ba c #89bbaf",
"#j c #8a897b",
"#9 c #8a897c",
"as c #8a8a7d",
"#r c #8a9070",
"ax c #8abeb4",
".7 c #8b8a7c",
".n c #8b8a7d",
".Q c #8b8b7d",
"#F c #8ba296",
"ap c #8c8b80",
"#4 c #8c8b81",
"#i c #8c8c7e",
"ao c #8c8c81",
"#8 c #8d8c7f",
"aq c #8d8c80",
".6 c #8e8d80",
"ar c #8e8d81",
"bf c #8e8d87",
"dh c #8e8e27",
".P c #8f8e81",
"a3 c #8f8f2e",
".m c #8f8f82",
"b5 c #8f8f88",
"#P c #908f82",
"#7 c #908f83",
"dr c #90905f",
"ck c #919089",
"dC c #91911e",
"aX c #919136",
".5 c #919184",
".O c #929185",
"df c #92925c",
"#O c #929285",
".A c #939285",
"#6 c #939286",
".l c #939386",
"#J c #949389",
"aW c #94943f",
".4 c #949487",
"c1 c #949494",
"a2 c #949528",
"ds c #959519",
"#N c #959588",
".N c #969588",
"#h c #96958a",
".z c #969689",
"a1 c #969725",
".k c #97968a",
"aV c #979750",
"#x c #98978b",
".3 c #98988b",
"c3 c #99985c",
"#M c #99988c",
"c5 c #999a24",
"#G c #999d65",
".M c #9a998d",
"#5 c #9a998e",
"cQ c #9a9a5b",
".y c #9a9a8e",
"de c #9a9a92",
"be c #9a9a95",
".j c #9b9a8e",
"#w c #9b9b8f",
"cZ c #9bb5af",
"#L c #9c9b8f",
".2 c #9c9b90",
"#a c #9c9b91",
"cD c #9c9b93",
"bg c #9c9c4f",
"cE c #9c9c5a",
"#g c #9d9c91",
"cn c #9d9d5b",
".L c #9d9d91",
"#K c #9d9d92",
"bd c #9d9d98",
"dA c #9da098",
"cm c #9e9d95",
"b8 c #9e9e5b",
"#1 c #9e9e62",
".x c #9e9e92",
"aj c #9e9e96",
"#s c #9f9e57",
"#v c #9f9e92",
".i c #9f9e93",
".1 c #9f9f94",
"#C c #9fc9c2",
"ak c #a09f5c",
"#t c #a09f6b",
"#I c #a0a03b",
"b7 c #a0a098",
"bP c #a0a099",
"#f c #a19f94",
".K c #a1a095",
"dg c #a1a114",
"cS c #a1a124",
"#u c #a1a196",
"dq c #a1a199",
".w c #a2a196",
"#3 c #a2a232",
"bS c #a2a25c",
".0 c #a2a297",
".h c #a3a297",
"e# c #a4a197",
"#e c #a4a298",
".J c #a4a499",
"bR c #a4a49c",
".U c #a5a49d",
".g c #a5a59a",
".Z c #a6a49a",
"cG c #a6a524",
"#d c #a6a59b",
"bA c #a6a69e",
"c2 c #a6a69f",
"#b c #a7a69a",
".I c #a7a69b",
"#c c #a7a69c",
"c. c #a7a723",
"cp c #a7a725",
"aL c #a7a735",
"bB c #a7a75d",
".v c #a8a79d",
"#H c #a8a81b",
"cl c #a8a8a1",
"aY c #a8a921",
"am c #a8a92a",
".Y c #a9a79d",
".V c #a9a8a0",
"aC c #a9a924",
".f c #a9a99e",
"dd c #a9a9a2",
"bv c #a9c5b9",
".H c #aaa89e",
".X c #aaa99e",
".u c #aaa9a0",
"by c #aaa9a3",
"dp c #aaaaa3",
"e. c #aba79d",
".W c #abaaa0",
"bU c #abab23",
"b6 c #ababa4",
".G c #acaba1",
".e c #acaca1",
".# c #acaca7",
".F c #adaca2",
".t c #adaca3",
".a c #adada4",
".r c #adada6",
"c4 c #aeae0f",
".d c #aeaea4",
".s c #aeaea5",
"#0 c #aeaea6",
".b c #afaea5",
".c c #b0afa5",
".E c #b1b0a9",
"#2 c #b1b115",
"bQ c #b1b1aa",
"bD c #b2b223",
"bi c #b2b31e",
"ac c #b3d3cb",
"bz c #b4b3ad",
"aD c #b4b413",
"#E c #b4c1b6",
"ag c #b6b6b6",
"cR c #b6b70d",
"aE c #b8b80f",
"ai c #b8b8b3",
"cO c #b9b9b9",
"b9 c #baba08",
"cF c #baba0c",
"co c #babb0a",
"bT c #bdbe06",
"dc c #bfc4c1",
"#U c #bfd9d2",
"al c #c0c10f",
"cz c #c0ccc9",
"aF c #c4c40d",
"aK c #c4c414",
"ah c #c5c5c2",
"a0 c #c5c60d",
"cN c #c5c6c5",
"#D c #c5ddd7",
"b3 c #c6c6c6",
"bC c #c9c905",
"#X c #cacaca",
"#Z c #cccbc7",
"b4 c #cecece",
"bM c #ced6cf",
"c0 c #cfcece",
"aG c #cfd009",
"cg c #cfd5d1",
"bh c #d1d204",
"aJ c #d1d20b",
"cB c #d2d2d2",
"b2 c #d2d7d6",
"aS c #d2e0da",
"#Y c #d6d6d3",
"aZ c #d6d705",
"aH c #d7d807",
"aI c #d9da06",
"bN c #dcdddd",
"cA c #dedede",
"ci c #dfdfdf",
"ch c #e2e2e2",
"bO c #e3e3e3",
"#V c #e7eeeb",
"ay c #e8efec",
"aT c #eeeeed",
"bw c #f0eff0",
"bx c #f2f2f2",
"bb c #f3f3f3",
"bc c #f4f4f4",
"ad c #f4f6f3",
"#W c #f6f6f6",
"aU c #f7f7f7",
"af c #f8f8f8",
"ae c #fafafa",
"aB c #fbfbfb",
"az c #fcfbfb",
"aA c #fcfcfc",
"QtQtQtQtQtQtQtQtQtQtQtQtQtQtQtQtQtQtQtQtQtQtQtQtQtQtQtQtQtQtQtQt",
"QtQtQtQtQtQtQtQtQtQtQtQtQtQtQtQtQtQtQtQtQtQtQtQtQtQtQtQtQtQtQtQt",
"QtQtQtQtQtQtQtQtQtQtQtQtQt.#.a.b.c.d.e.f.g.h.i.j.k.l.m.n.o.p.qQt",
"QtQtQtQtQtQtQtQtQtQtQtQtQt.r.a.s.b.t.u.v.g.w.x.y.z.A.m.n.B.C.DQt",
"QtQtQtQtQtQtQtQtQtQtQtQtQt.E.s.a.F.G.H.I.J.K.L.M.N.O.P.Q.R.S.TQt",
"QtQtQtQtQtQtQtQtQtQtQtQtQt.U.V.G.W.X.Y.Z.0.1.2.3.4.5.6.7.R.8.9Qt",
"QtQtQtQtQtQtQtQtQtQtQtQtQt#.###a#b#c#d#e#f#g.y#h.A.m#i#j#k#l#mQt",
"QtQtQtQtQtQtQtQt#n#oQtQtQt#p#q#r#s#t.1#u#v#w#x.4.5.6.n#y#z#A#mQt",
"QtQtQtQtQtQt#B#C#DQtQtQtQt#E#F#G#H#I#J#K#L#M#N#O#P#i#Q.B#R.9#SQt",
"QtQtQtQtQt#T#U#V#WQtQt#X#Y#Z#0#1#2#3#4#5#M.z#6#7#8#9a.#Ra#.TaaQt",
"QtQtQtQtabacadaeafQtQtagahaiajakalamanaoapaqar#8asa.ata##mauavQt",
"QtQtQtawaxayazaAaBQtQtQtaCaDaEaFaGaHaIaJaKaLaM#9a.#zaN#SaOaPaQQt",
"QtQtQtaRaSaTaUaAaAQtQtQtaVaWaXaYaZa0a1a2a3a4a5a6a7aNa8a9aPb.b#Qt",
"QtQtQtbabbaUbcaBQtQtQtQtbdbebfbgbhbibjbkblbmbnaMbobpbqaQbrbsbtQt",
"QtQtbubvbwbx#WQtQtQtQtQtbybzbAbBbCbDbEbFaMaMbG.CbH.DbIbsbJbKbKQt",
"QtQtbLbMbNbOQtQtQtQtQtQtbPbQbRbSbTbUbVa6bWbn.TbqbXbYbJbZb0b0b0Qt",
"QtQtb1b2b3b4QtQtQtQtQtQtb5b6b7b8b9c.c#cacba9.DbIccbZb0cdcececeQt",
"QtQtcfcgchciQtQtQtQtQtcjckclcmcncocpcqcrcsctcubZcvcdcwcxcxcxcxQt",
"QtQtcyczcAcBQtQtQtQtcCQtQtbAcDcEcFcGcHcIcJccbZcdcwcKcKcLcLcLcLQt",
"QtQtQtcMcNcOQtQtQtcPQtQtQtbAcDcQcRcScTcUcVcvcdcxcKcWcXcXcXcXcXQt",
"QtQtQtcYcZc0QtQtQtc1QtQtQtc2ajc3c4c5c6c7b0c8c9cWd.cXbld#d#d#d#Qt",
"QtQtQtdadbdcQtQtQtQtQtQtQtdddedfdgdhdidjcwc9cWcXbldkdldldmdmdmQt",
"QtQtQtQtdndoQtQtQtQtQtQtQtdpdqdrdsdtducwcxcKd.bldvdldmdwdxdxdxQt",
"QtQtQtQtQtdydzQtQtQtQtQtQtdpdAdBdCdDducxc9cWdEdkdldmdxdFdFdFdFQt",
"QtQtQtQtQtQtQtQtQtQtQtQtQtdGdHdIdJdKdLdMcKcWbldldmdxdFdNdOdOdOQt",
"QtQtQtQtQtQtQtQtQtQtQtQtQtdPdQdRdSdTdUcxcKd.dVdldwdFdNdOdWdXdYQt",
"QtQtQtQtQtQtQtQtQtQtQtQtQtdZd0dxd1c7cdcwcKd.dVdldwdFdOd2dXd3d3Qt",
"QtQtQtQtQtQtQtQtQtQtQtQtQtd4d5bZbZcvcdcxcKd.dVdldwdFdWdYd3d6d7Qt",
"QtQtQtQtQtQtQtQtQtQtQtQtQtd8bYbKbZcvcdcxcKd.bldldwdFdWd2bjd7d9Qt",
"QtQtQtQtQtQtQtQtQtQtQtQtQtQtQtQtQtQtQtQtQtQtQtQtQtQtQtQtQtQtQtQt",
"QtQtQtQtQtQtQtQtQtQtQtQtQtQtQtQtQtQtQtQtQtQtQtQtQtQtQtQtQtQte.e#",
"QtQtQtQtQtQtQtQtQtQtQtQtQtQtQtQtQtQtQtQtQtQtQtQtQtQtQtQtQtQtQtQt"};
